<mxfile host="65bd71144e">
    <diagram id="TjGfs_cRIeSkfTV18U19" name="Page-1">
        <mxGraphModel dx="2148" dy="1144" grid="1" gridSize="10" guides="1" tooltips="1" connect="1" arrows="1" fold="1" page="1" pageScale="1" pageWidth="827" pageHeight="1169" math="0" shadow="0">
            <root>
                <mxCell id="0"/>
                <mxCell id="1" parent="0"/>
                <mxCell id="HxJW-uE0XbYmK7RLiT4D-6" style="edgeStyle=orthogonalEdgeStyle;rounded=0;orthogonalLoop=1;jettySize=auto;html=1;entryX=0.5;entryY=0;entryDx=0;entryDy=0;fontSize=38;strokeWidth=15;" parent="1" source="HxJW-uE0XbYmK7RLiT4D-2" target="HxJW-uE0XbYmK7RLiT4D-3" edge="1">
                    <mxGeometry relative="1" as="geometry"/>
                </mxCell>
                <mxCell id="HxJW-uE0XbYmK7RLiT4D-2" value="Fichiers &quot;sources&quot;" style="rounded=1;whiteSpace=wrap;html=1;fontSize=38;" parent="1" vertex="1">
                    <mxGeometry x="224" y="40" width="379" height="120" as="geometry"/>
                </mxCell>
                <mxCell id="HxJW-uE0XbYmK7RLiT4D-7" style="edgeStyle=orthogonalEdgeStyle;rounded=0;orthogonalLoop=1;jettySize=auto;html=1;entryX=0.5;entryY=0;entryDx=0;entryDy=0;fontSize=38;strokeWidth=15;" parent="1" source="HxJW-uE0XbYmK7RLiT4D-3" target="HxJW-uE0XbYmK7RLiT4D-4" edge="1">
                    <mxGeometry relative="1" as="geometry"/>
                </mxCell>
                <mxCell id="HxJW-uE0XbYmK7RLiT4D-3" value="Compilateur" style="rounded=1;whiteSpace=wrap;html=1;fontSize=38;" parent="1" vertex="1">
                    <mxGeometry x="224" y="270" width="379" height="120" as="geometry"/>
                </mxCell>
                <mxCell id="4" style="edgeStyle=none;html=1;strokeWidth=15;" edge="1" parent="1" source="HxJW-uE0XbYmK7RLiT4D-4" target="2">
                    <mxGeometry relative="1" as="geometry"/>
                </mxCell>
                <mxCell id="HxJW-uE0XbYmK7RLiT4D-4" value="Fichier executable" style="rounded=1;whiteSpace=wrap;html=1;fontSize=38;" parent="1" vertex="1">
                    <mxGeometry x="224" y="490" width="379" height="140" as="geometry"/>
                </mxCell>
                <mxCell id="5" style="edgeStyle=none;html=1;entryX=0.5;entryY=0;entryDx=0;entryDy=0;strokeWidth=15;" edge="1" parent="1" source="2" target="3">
                    <mxGeometry relative="1" as="geometry"/>
                </mxCell>
                <mxCell id="2" value="Execution" style="rounded=1;whiteSpace=wrap;html=1;fontSize=38;" vertex="1" parent="1">
                    <mxGeometry x="224" y="740" width="379" height="140" as="geometry"/>
                </mxCell>
                <mxCell id="3" value="RÃ©sultat" style="rounded=1;whiteSpace=wrap;html=1;fontSize=38;" vertex="1" parent="1">
                    <mxGeometry x="224" y="990" width="379" height="140" as="geometry"/>
                </mxCell>
            </root>
        </mxGraphModel>
    </diagram>
</mxfile>